<?xml version="1.0" encoding="UTF-8"?>
<svg id="Capa_2" data-name="Capa 2" xmlns="http://www.w3.org/2000/svg" viewBox="0 0 354.03 354.03">
  <defs>
    <style>
      .cls-1 {
        fill: #1d1d1b;
        stroke-width: 6px;
      }

      .cls-1, .cls-2 {
        stroke: #1d1d1b;
        stroke-miterlimit: 10;
      }

      .cls-2 {
        fill: #fff;
      }
    </style>
  </defs>
  <g id="Capa_1-2" data-name="Capa 1">
    <rect class="cls-2" x=".5" y=".5" width="353.03" height="353.03" rx="55.83" ry="55.83"/>
    <g>
      <path class="cls-1" d="M109.04,244.64c-10.64-26.05-22.14-54.93-9.33-73.77,5.91-8.69,16.8-15,34.81-17.46,33.84-4.63,55.43,1.99,80.34-27.66,18.16-21.61,21.3-42.18,31.28-66.72,1.28-3.14,2.05-7.18,6.34-3.83,7.83,6.1,2.55,45.79.28,55.46-8.01,34.16-31.17,58.92-42.89,91.11-9.71,26.65-13.88,57.65-15.02,85.98-.46,11.42.95,23.84.08,35.08-2.29,29.58-21.36-7.22-25.21-15.86-14.37-32.3-17.51-67.71-28.81-100.19-1.81-5.19-4.19-13.06-9.49-15.48-8.06,1.79-.51,38.4.96,45.02,3.6,16.18,9.61,31.89,12.83,48.17,1.21,6.11,5.03,14.74-4.32,14.83-15.91-20.3-25.7-39.56-31.86-54.65ZM249.92,57.29c-10.79,36.32-27.96,83.9-69,94.5-26.47,6.83-78.58-3.6-83.75,34.25-3.42,25.08,18.43,65.9,30.57,87.91,1.72,3.12,11.84,22.28,13.67,22.31,2.49-1.98,1.52-5.47,1.22-8.21-3.03-28.08-21.06-59.88-17.61-89.16.51-4.34,2.08-9.83,7.23-10.4,7.69,3.23,9.79,12.51,12.15,19.8,9.35,28.89,13.42,59.82,24.49,88.51,2.17,5.64,14.88,34.38,20.52,34.46,1.8-1.78,2.25-5.09,2.48-7.5,1.11-11.29-.49-24.43-.03-36.03,1.09-27.04,4.98-56.76,13.58-82.42,16.26-48.53,56.8-83.17,47.35-140.43-.33-1.99-.94-6.6-2.88-7.6Z"/>
      <path class="cls-1" d="M259.9,20.28c1.6,1.48-23.03,32.37-24.61,35.88-2,.52-15.39-15.25-15.36-16.4.03-1.23,1.38-1.31,2.66-.7,2.66,1.26,10.71,13.18,11.81,13.19,7.38-8.62,13.77-22.53,21.65-30.33.89-.88,2.53-2.86,3.84-1.65Z"/>
      <circle class="cls-1" cx="166.77" cy="107.8" r="34.58"/>
    </g>
  </g>
</svg>